<svg width="56" height="56" viewBox="0 0 56 56" fill="none" xmlns="http://www.w3.org/2000/svg">
<g filter="url(#filter0_f_326_56)">
<rect x="6" y="6" width="43.7289" height="43.7289" rx="3.64408" fill="url(#paint0_linear_326_56)"/>
</g>
<path d="M6 9.64408C6 7.63151 7.63151 6 9.64408 6H46.0848C48.0974 6 49.7289 7.63151 49.7289 9.64408V46.0848C49.7289 48.0974 48.0974 49.7289 46.0848 49.7289H9.64408C7.63151 49.7289 6 48.0974 6 46.0848V9.64408Z" fill="#07031D"/>
<path d="M34.4988 36.7212H21.029C20.6932 36.7212 20.3712 36.8546 20.1337 37.092C19.8963 37.3295 19.7629 37.6515 19.7629 37.9873V39.2544C19.7629 39.3045 19.7727 39.3541 19.7919 39.4003C19.811 39.4466 19.8391 39.4886 19.8745 39.524C19.9099 39.5594 19.9519 39.5875 19.9981 39.6067C20.0444 39.6258 20.094 39.6357 20.144 39.6357H35.3837C35.4848 39.6357 35.5818 39.5955 35.6533 39.524C35.7248 39.4525 35.765 39.3556 35.765 39.2544V37.9875C35.765 37.8212 35.7323 37.6565 35.6687 37.5029C35.605 37.3493 35.5118 37.2097 35.3942 37.0921C35.2766 36.9745 35.137 36.8812 34.9834 36.8176C34.8298 36.7539 34.6651 36.7212 34.4988 36.7212V36.7212Z" fill="#C620F1"/>
<path d="M37.6876 16.1386H35.5757V15.4508C35.5757 15.2347 35.4898 15.0274 35.337 14.8746C35.1842 14.7217 34.977 14.6358 34.7608 14.6357H20.9098C20.8027 14.6357 20.6968 14.6568 20.5979 14.6978C20.499 14.7387 20.4091 14.7988 20.3334 14.8745C20.2577 14.9502 20.1977 15.04 20.1567 15.1389C20.1157 15.2378 20.0947 15.3438 20.0947 15.4508V16.1386H17.8857C17.3859 16.1392 16.9067 16.338 16.5533 16.6915C16.1999 17.0449 16.001 17.5241 16.0004 18.0239V19.2453C15.9881 20.2239 16.2324 21.1887 16.709 22.0435C17.1857 22.8983 17.878 23.6133 18.717 24.1173C19.4463 24.538 20.2622 24.7863 21.1022 24.8433C21.1201 24.8445 21.1381 24.8451 21.1561 24.8451C21.1858 24.8442 21.2154 24.8414 21.2447 24.8367C22.0531 26.1505 23.2343 27.1939 24.6378 27.8339C25.1512 28.0773 25.5839 28.4629 25.8848 28.9448C26.1856 29.4268 26.3419 29.9849 26.3351 30.553V31.9526C26.3351 32.2034 26.2355 32.4439 26.0582 32.6213C25.8809 32.7986 25.6404 32.8983 25.3896 32.8983H23.435C23.1307 32.8983 22.839 33.0192 22.6239 33.2343C22.4087 33.4494 22.2879 33.7412 22.2879 34.0454V35.6136H33.3826V34.0452C33.3826 33.741 33.2617 33.4493 33.0465 33.2342C32.8314 33.0191 32.5397 32.8983 32.2354 32.8983H30.2807C30.0299 32.8983 29.7894 32.7986 29.6121 32.6213C29.4348 32.444 29.3351 32.2035 29.3351 31.9527V30.5529C29.3283 29.9847 29.4846 29.4266 29.7855 28.9446C30.0863 28.4627 30.5191 28.0771 31.0325 27.8337C32.433 27.1951 33.6123 26.1549 34.4207 24.845C34.4374 24.845 34.4543 24.8444 34.4712 24.8433C35.3111 24.7864 36.1268 24.538 36.856 24.1173C37.695 23.6134 38.3874 22.8984 38.8641 22.0436C39.3408 21.1888 39.5852 20.2239 39.5729 19.2453V18.0239C39.5723 17.5241 39.3735 17.0449 39.0201 16.6915C38.6667 16.338 38.1875 16.1392 37.6876 16.1386V16.1386ZM19.4495 22.8512C18.8323 22.476 18.3241 21.9457 17.9756 21.313C17.6271 20.6804 17.4503 19.9675 17.463 19.2453V18.0239C17.4631 17.9118 17.5077 17.8044 17.5869 17.7251C17.6662 17.6459 17.7737 17.6013 17.8857 17.6012H20.0947V20.7853C20.0953 21.6301 20.2346 22.469 20.5071 23.2686C20.1364 23.1808 19.7803 23.0403 19.4495 22.8512V22.8512ZM30.7623 21.152L29.8722 21.7986C29.7702 21.8727 29.6943 21.9772 29.6553 22.0972C29.6163 22.2171 29.6164 22.3464 29.6553 22.4663L29.9952 23.5124C30.0341 23.6323 30.0341 23.7616 29.9952 23.8815C29.9562 24.0015 29.8803 24.106 29.7782 24.1802C29.6762 24.2543 29.5533 24.2942 29.4272 24.2942C29.301 24.2942 29.1781 24.2543 29.0761 24.1802L28.186 23.5337C28.084 23.4595 27.9611 23.4196 27.835 23.4196C27.7089 23.4196 27.586 23.4595 27.484 23.5337L26.5939 24.1802C26.4919 24.2543 26.369 24.2942 26.2429 24.2942C26.1168 24.2942 25.9939 24.2543 25.8918 24.1802C25.7898 24.106 25.7138 24.0015 25.6749 23.8815C25.6359 23.7616 25.6359 23.6323 25.6749 23.5124L26.0148 22.4663C26.0537 22.3463 26.0537 22.2171 26.0148 22.0972C25.9758 21.9772 25.8998 21.8727 25.7978 21.7986L24.9083 21.152C24.8063 21.0778 24.7303 20.9733 24.6913 20.8533C24.6523 20.7334 24.6523 20.6042 24.6913 20.4842C24.7303 20.3642 24.8062 20.2597 24.9082 20.1856C25.0103 20.1114 25.1332 20.0715 25.2593 20.0715H26.3592C26.4853 20.0715 26.6082 20.0316 26.7103 19.9574C26.8123 19.8833 26.8883 19.7788 26.9272 19.6588L27.2672 18.6127C27.3062 18.4928 27.3821 18.3882 27.4841 18.3141C27.5862 18.24 27.7091 18.2 27.8352 18.2C27.9613 18.2 28.0842 18.24 28.1863 18.3141C28.2883 18.3882 28.3643 18.4928 28.4032 18.6127L28.7432 19.6588C28.7822 19.7788 28.8582 19.8833 28.9602 19.9574C29.0622 20.0315 29.1851 20.0714 29.3112 20.0715H30.4112C30.5374 20.0715 30.6602 20.1114 30.7623 20.1856C30.8643 20.2597 30.9402 20.3643 30.9792 20.4842C31.0182 20.6042 31.0182 20.7334 30.9792 20.8533C30.9402 20.9733 30.8643 21.0778 30.7623 21.152V21.152ZM38.1104 19.2452C38.123 19.9675 37.9462 20.6805 37.5976 21.3132C37.249 21.9459 36.7408 22.4762 36.1235 22.8514C35.8247 23.0226 35.5049 23.1542 35.1722 23.2429C35.439 22.4509 35.5753 21.6209 35.5759 20.7852V17.601H37.6876C37.7997 17.6012 37.9072 17.6457 37.9864 17.725C38.0657 17.8042 38.1103 17.9117 38.1104 18.0238V19.2452Z" fill="#C620F1"/>
<defs>
<filter id="filter0_f_326_56" x="0.533886" y="0.533886" width="54.6612" height="54.6612" filterUnits="userSpaceOnUse" color-interpolation-filters="sRGB">
<feFlood flood-opacity="0" result="BackgroundImageFix"/>
<feBlend mode="normal" in="SourceGraphic" in2="BackgroundImageFix" result="shape"/>
<feGaussianBlur stdDeviation="2.73306" result="effect1_foregroundBlur_326_56"/>
</filter>
<linearGradient id="paint0_linear_326_56" x1="7.70202" y1="7.45763" x2="53.2302" y2="40.7076" gradientUnits="userSpaceOnUse">
<stop stop-color="#AA1FFE"/>
<stop offset="1" stop-color="#DD22E6"/>
</linearGradient>
</defs>
</svg>
