<svg width="56" height="56" viewBox="0 0 56 56" fill="none" xmlns="http://www.w3.org/2000/svg">
<g filter="url(#filter0_f_326_18)">
<rect x="6" y="6" width="43.7289" height="43.7289" rx="3.64408" fill="url(#paint0_linear_326_18)"/>
</g>
<path fill-rule="evenodd" clip-rule="evenodd" d="M6 10.0083C6 7.99577 7.63151 6.36426 9.64408 6.36426H46.0848C48.0974 6.36426 49.7289 7.99577 49.7289 10.0083V46.4491C49.7289 48.4617 48.0974 50.0932 46.0848 50.0932H9.64408C7.63151 50.0932 6 48.4617 6 46.4491V10.0083ZM19.2833 16.1108L16.6331 19.8201C16.6016 19.8642 16.5829 19.9161 16.5789 19.9702C16.575 20.0242 16.586 20.0783 16.6108 20.1265C16.6356 20.1746 16.6731 20.2151 16.7194 20.2433C16.7656 20.2716 16.8187 20.2866 16.8729 20.2866L24.3644 20.2938L27.5041 15.8662H19.7585C19.6655 15.8662 19.5739 15.8884 19.4913 15.931C19.4086 15.9735 19.3373 16.0352 19.2833 16.1108ZM36.322 16.1108L38.9895 19.8445C39.0211 19.8886 39.0398 19.9406 39.0437 19.9947C39.0476 20.0488 39.0366 20.103 39.0117 20.1512C38.9869 20.1994 38.9492 20.2398 38.9029 20.268C38.8565 20.2962 38.8033 20.3111 38.7491 20.311L31.2356 20.3039L28.1055 15.8662H35.8466C35.9396 15.8662 36.0313 15.8884 36.1139 15.931C36.1966 15.9735 36.268 16.0351 36.322 16.1108ZM30.4553 21.2245L28.3869 18.2921V27.3227H35.8468C36.0476 27.3227 36.2402 27.2429 36.3823 27.1009C36.5243 26.9589 36.6041 26.7663 36.6041 26.5654V21.4775L30.932 21.472C30.8386 21.4718 30.7465 21.4493 30.6636 21.4062C30.5807 21.3631 30.5093 21.3008 30.4553 21.2245ZM24.6659 21.4627H24.6668C24.7601 21.4626 24.852 21.4401 24.9349 21.3973C25.0178 21.3544 25.0892 21.2923 25.1432 21.2162L27.2194 18.2883V27.3228H19.7591C19.5582 27.3228 19.3656 27.243 19.2236 27.101C19.0816 26.9589 19.0018 26.7663 19.0018 26.5655V21.4673L24.6659 21.4627ZM20.5529 30.4568H17.715C17.6557 30.4568 17.597 30.4685 17.5422 30.4912C17.4874 30.5139 17.4376 30.5471 17.3957 30.5891C17.3538 30.631 17.3206 30.6808 17.2979 30.7355C17.2752 30.7903 17.2635 30.849 17.2635 30.9083V40.5936C17.2635 40.7134 17.3111 40.8282 17.3957 40.9129C17.4804 40.9976 17.5952 41.0452 17.715 41.0452H20.5529C20.6821 41.0452 20.8101 41.0198 20.9296 40.9703C21.049 40.9209 21.1575 40.8484 21.2489 40.757C21.3403 40.6656 21.4128 40.5571 21.4623 40.4377C21.5118 40.3183 21.5373 40.1903 21.5373 40.061V31.4409C21.5372 31.3117 21.5118 31.1837 21.4623 31.0643C21.4128 30.9449 21.3403 30.8364 21.2489 30.745C21.1575 30.6536 21.049 30.5811 20.9295 30.5317C20.8101 30.4822 20.6821 30.4568 20.5529 30.4568ZM37.7953 31.0486C38.0359 31.1782 38.2404 31.3657 38.3904 31.5941C38.5411 31.8221 38.6326 32.084 38.6567 32.3562C38.6808 32.6284 38.6367 32.9023 38.5285 33.1532L37.66 35.1745C37.1447 36.3757 36.2882 37.3992 35.1967 38.1182C34.1051 38.8371 32.8266 39.2199 31.5195 39.2191H22.7041V32.7666C23.341 32.6565 23.9283 32.3523 24.3857 31.8956L24.4474 31.8341C24.7594 31.5215 25.1303 31.2738 25.5385 31.1051C25.9468 30.9365 26.3844 30.8503 26.8261 30.8516H29.2434C29.5406 30.8516 29.835 30.9103 30.1095 31.0244C30.3841 31.1385 30.6334 31.3056 30.8432 31.5162C31.053 31.7269 31.2191 31.9768 31.3321 32.2518C31.4451 32.5268 31.5026 32.8214 31.5015 33.1187V33.1385C31.153 33.3753 30.7438 33.507 30.3226 33.5178H27.0441C26.8891 33.5178 26.7405 33.5794 26.631 33.6889C26.5214 33.7985 26.4599 33.9471 26.4599 34.102C26.4599 34.257 26.5214 34.4055 26.631 34.5151C26.7405 34.6247 26.8891 34.6862 27.0441 34.6862L30.3382 34.686C30.9165 34.6627 31.4808 34.5014 31.984 34.2154C32.4872 33.9294 32.9146 33.5271 33.2305 33.0421C33.4164 32.835 33.5661 32.5981 33.6736 32.3414C33.8547 31.9 34.1633 31.5225 34.5598 31.2571C34.9564 30.9918 35.4231 30.8506 35.9002 30.8516H37.0124C37.2857 30.8512 37.5547 30.9189 37.7953 31.0486Z" fill="#07031D"/>
<defs>
<filter id="filter0_f_326_18" x="0.533886" y="0.533886" width="54.6612" height="54.6612" filterUnits="userSpaceOnUse" color-interpolation-filters="sRGB">
<feFlood flood-opacity="0" result="BackgroundImageFix"/>
<feBlend mode="normal" in="SourceGraphic" in2="BackgroundImageFix" result="shape"/>
<feGaussianBlur stdDeviation="2.73306" result="effect1_foregroundBlur_326_18"/>
</filter>
<linearGradient id="paint0_linear_326_18" x1="7.70202" y1="7.45763" x2="53.2302" y2="40.7076" gradientUnits="userSpaceOnUse">
<stop stop-color="#AA1FFE"/>
<stop offset="1" stop-color="#DD22E6"/>
</linearGradient>
</defs>
</svg>
