<svg width="56" height="56" viewBox="0 0 56 56" fill="none" xmlns="http://www.w3.org/2000/svg">
<g filter="url(#filter0_f_326_23)">
<rect x="6" y="6" width="43.7289" height="43.7289" rx="3.64408" fill="url(#paint0_linear_326_23)"/>
</g>
<path d="M6 9.64408C6 7.63151 7.63151 6 9.64408 6H46.0848C48.0974 6 49.7289 7.63151 49.7289 9.64408V46.0848C49.7289 48.0974 48.0974 49.7289 46.0848 49.7289H9.64408C7.63151 49.7289 6 48.0974 6 46.0848V9.64408Z" fill="#07031D"/>
<path d="M35.7339 21.9936C36.0439 21.4818 36.2377 20.9081 36.3016 20.3132C36.3918 19.305 36.0871 18.3012 35.4517 17.5133C34.8163 16.7255 33.8998 16.215 32.8955 16.0896C32.3019 15.9623 31.6873 15.9708 31.0975 16.1143C30.5077 16.2578 29.958 16.5327 29.4893 16.9184C29.0247 17.3289 28.6398 17.8216 28.3539 18.3717C28.068 17.8216 27.6831 17.3289 27.2185 16.9184C26.7498 16.5327 26.2 16.2578 25.6102 16.1143C25.0205 15.9708 24.4059 15.9623 23.8123 16.0896C22.808 16.215 21.8915 16.7255 21.2561 17.5133C20.6207 18.3012 20.316 19.305 20.4062 20.3132C20.4701 20.9081 20.6639 21.4818 20.9739 21.9936C19.8269 22.3542 18.8241 23.0697 18.11 24.0369C17.3958 25.0041 17.0071 26.1731 17 27.3753V35.3231C17 36.0686 17.1468 36.8068 17.4321 37.4955C17.7174 38.1843 18.1356 38.8101 18.6627 39.3373C19.7274 40.4019 21.1713 41 22.6769 41H34.0308C34.7763 41 35.5146 40.8532 36.2033 40.5679C36.8921 40.2826 37.5179 39.8644 38.045 39.3373C38.5722 38.8101 38.9904 38.1843 39.2757 37.4955C39.561 36.8068 39.7078 36.0686 39.7078 35.3231V27.3753C39.7006 26.1731 39.312 25.0041 38.5978 24.0369C37.8836 23.0697 36.8808 22.3542 35.7339 21.9936ZM30.9766 18.6669C31.1845 18.4919 31.4299 18.3671 31.6937 18.3022C31.9575 18.2372 32.2327 18.2338 32.4981 18.2922C32.7219 18.3029 32.9411 18.3599 33.1418 18.4594C33.3426 18.559 33.5205 18.699 33.6645 18.8708C33.8085 19.0425 33.9154 19.2421 33.9784 19.4571C34.0415 19.6722 34.0593 19.8979 34.0308 20.1202C34.0111 20.3519 33.9451 20.5772 33.8366 20.7829C33.7282 20.9885 33.5796 21.1704 33.3996 21.3175C33.2196 21.4647 33.0119 21.5742 32.7887 21.6397C32.5656 21.7051 32.3317 21.7251 32.1007 21.6984H29.6142C29.7317 20.568 30.2093 19.5053 30.9766 18.6669ZM24.1643 18.3263C24.3117 18.315 24.4597 18.315 24.6071 18.3263C24.9998 18.3185 25.3824 18.4514 25.6857 18.701C26.463 19.5242 26.9564 20.5746 27.0936 21.6984H24.6071C24.3761 21.7251 24.1422 21.7051 23.919 21.6397C23.6959 21.5742 23.4882 21.4647 23.3082 21.3175C23.1282 21.1704 22.9796 20.9885 22.8712 20.7829C22.7627 20.5772 22.6967 20.3519 22.6769 20.1202C22.6502 19.8982 22.6693 19.6731 22.733 19.4588C22.7967 19.2445 22.9037 19.0455 23.0474 18.8742C23.191 18.7028 23.3683 18.5628 23.5682 18.4627C23.7681 18.3626 23.9865 18.3046 24.2097 18.2922L24.1643 18.3263ZM34.0308 36.4584H29.4893C29.1882 36.4584 28.8994 36.3388 28.6864 36.1259C28.4735 35.913 28.3539 35.6242 28.3539 35.3231C28.3539 35.0219 28.4735 34.7331 28.6864 34.5202C28.8994 34.3073 29.1882 34.1877 29.4893 34.1877H34.0308C34.332 34.1877 34.6208 34.3073 34.8337 34.5202C35.0466 34.7331 35.1662 35.0219 35.1662 35.3231C35.1662 35.6242 35.0466 35.913 34.8337 36.1259C34.6208 36.3388 34.332 36.4584 34.0308 36.4584Z" fill="#BD21F5"/>
<defs>
<filter id="filter0_f_326_23" x="0.533886" y="0.533886" width="54.6612" height="54.6612" filterUnits="userSpaceOnUse" color-interpolation-filters="sRGB">
<feFlood flood-opacity="0" result="BackgroundImageFix"/>
<feBlend mode="normal" in="SourceGraphic" in2="BackgroundImageFix" result="shape"/>
<feGaussianBlur stdDeviation="2.73306" result="effect1_foregroundBlur_326_23"/>
</filter>
<linearGradient id="paint0_linear_326_23" x1="7.70202" y1="7.45763" x2="53.2302" y2="40.7076" gradientUnits="userSpaceOnUse">
<stop stop-color="#AA1FFE"/>
<stop offset="1" stop-color="#DD22E6"/>
</linearGradient>
</defs>
</svg>
