<svg width="56" height="56" viewBox="0 0 56 56" fill="none" xmlns="http://www.w3.org/2000/svg">
<g filter="url(#filter0_f_326_74)">
<rect x="6" y="6" width="43.7289" height="43.7289" rx="3.64408" fill="url(#paint0_linear_326_74)"/>
</g>
<path d="M6 9.64408C6 7.63151 7.63151 6 9.64408 6H46.0848C48.0974 6 49.7289 7.63151 49.7289 9.64408V46.0848C49.7289 48.0974 48.0974 49.7289 46.0848 49.7289H9.64408C7.63151 49.7289 6 48.0974 6 46.0848V9.64408Z" fill="#07031D"/>
<path d="M30.3254 28.956C29.7043 29.3523 28.9252 29.5896 28.0771 29.5898L28.032 29.5891C28.032 29.5891 28.0319 29.5891 28.0319 29.5891C27.2255 29.5754 26.4846 29.3474 25.8867 28.9731V28.6823C26.5672 29.0526 27.3307 29.2478 28.1082 29.2479C28.8849 29.2481 29.6477 29.0536 30.3277 28.6843L30.3254 28.956ZM30.7193 28.8692L30.7229 28.4435C31.3118 28.0441 31.8018 27.5149 32.1548 26.8962C32.4985 26.2935 32.7031 25.6223 32.7543 24.9315C32.9888 24.9042 33.2087 24.7986 33.3774 24.6299C33.5748 24.4325 33.6858 24.1649 33.6861 23.8858V23.8856V23.3885V23.3883C33.6858 23.1312 33.5862 22.8842 33.4082 22.6988C33.2751 22.5602 33.1058 22.464 32.9215 22.4198C33.8568 19.4619 33.4085 17.8359 32.6202 16.948C31.9301 16.1708 31.0126 15.9991 30.6693 15.9624C30.6449 15.7382 30.5501 15.2792 30.1783 14.9294C29.7294 14.5072 28.9285 14.2888 27.5267 14.7221C27.346 14.778 27.1624 14.8329 26.9776 14.8882C26.4076 15.0587 25.8267 15.2324 25.2872 15.4467C24.5708 15.7313 23.9082 16.0941 23.4153 16.6348C22.4343 17.7109 22.1772 19.4269 23.2991 22.4193C23.1164 22.4627 22.9482 22.5571 22.8152 22.6935C22.634 22.8794 22.5324 23.1287 22.5321 23.3883V23.3885V23.8856L22.5321 23.8858C22.5324 24.1649 22.6434 24.4325 22.8408 24.6299C23.0095 24.7986 23.2294 24.9042 23.4639 24.9315C23.5151 25.6221 23.7195 26.2932 24.0632 26.8956C24.4158 27.514 24.9053 28.043 25.4937 28.4424V28.8594C25.4584 28.8699 25.422 28.8875 25.3877 28.916C25.2712 29.0131 25.2427 29.1812 25.2766 29.3972C25.3034 29.5677 25.2745 29.7141 25.2467 29.8548C25.2404 29.8866 25.2342 29.918 25.2287 29.9495C25.2192 30.0036 25.2081 30.0756 25.2189 30.1468C21.5946 30.8188 18.85 33.8129 18.85 37.4189V39.6357V39.7857H19H37.2182H37.3682V39.6357V37.4189C37.3682 33.8021 34.6071 30.8009 30.9668 30.1408C30.9764 30.0687 30.9645 29.9949 30.9542 29.9382C30.9493 29.9113 30.944 29.8842 30.9386 29.857C30.9108 29.7156 30.8817 29.5678 30.9085 29.3972C30.939 29.2032 30.9194 29.0495 30.8303 28.9482C30.7961 28.9093 30.7575 28.8846 30.7193 28.8692ZM28.1091 28.8548C25.7611 28.8548 23.8499 26.9472 23.8441 24.6004V24.5899V21.9123C23.9506 22.1662 24.088 22.381 24.2639 22.5517C24.6816 22.9571 25.2821 23.0823 26.087 22.9484C26.4488 22.8881 26.8378 22.656 27.2047 22.4356L27.2278 22.4218C27.6004 22.198 27.9593 21.9824 28.3029 21.8916C28.4487 21.8531 28.5985 21.8165 28.7467 21.7803C28.9406 21.7329 29.1317 21.6862 29.3073 21.6368C29.6241 21.5478 29.9246 21.4416 30.1809 21.2828C30.44 21.1224 30.6541 20.9081 30.7959 20.6061C30.9168 20.3484 30.9815 20.0347 30.9842 19.6492C31.1414 19.6844 31.3518 19.7436 31.578 19.975C31.8762 20.2802 32.208 20.9012 32.3741 22.2042V24.5899C32.3741 26.9415 30.4607 28.8548 28.1091 28.8548ZM23.1021 22.9622C23.1968 22.8675 23.3197 22.8075 23.4511 22.7903L23.4511 24.5317C23.3261 24.5056 23.2103 24.4436 23.1187 24.352C22.995 24.2283 22.9253 24.0605 22.9251 23.8854V23.3886C22.9253 23.2287 22.989 23.0753 23.1021 22.9622ZM22.8321 23.8854V23.3886V23.8854ZM32.7671 24.5317V22.7903C32.8985 22.8075 33.0214 22.8675 33.1161 22.9622C33.2292 23.0753 33.2929 23.2286 33.293 23.3886V23.8854C33.2928 24.0604 33.2232 24.2282 33.0995 24.352C33.0078 24.4436 32.8921 24.5056 32.7671 24.5317Z" fill="#C720F0" stroke="#C720F0" stroke-width="0.3"/>
<defs>
<filter id="filter0_f_326_74" x="0.533886" y="0.533886" width="54.6611" height="54.6612" filterUnits="userSpaceOnUse" color-interpolation-filters="sRGB">
<feFlood flood-opacity="0" result="BackgroundImageFix"/>
<feBlend mode="normal" in="SourceGraphic" in2="BackgroundImageFix" result="shape"/>
<feGaussianBlur stdDeviation="2.73306" result="effect1_foregroundBlur_326_74"/>
</filter>
<linearGradient id="paint0_linear_326_74" x1="7.70202" y1="7.45763" x2="53.2302" y2="40.7076" gradientUnits="userSpaceOnUse">
<stop stop-color="#AA1FFE"/>
<stop offset="1" stop-color="#DD22E6"/>
</linearGradient>
</defs>
</svg>
