<svg width="32" height="30" viewBox="0 0 32 30" fill="none" xmlns="http://www.w3.org/2000/svg">
<path d="M11.8353 0.734174C9.15783 0.720007 6.55116 3.29834 7.74116 6.50001H3.25033C2.49888 6.50001 1.77821 6.79852 1.24686 7.32987C0.715503 7.86122 0.416992 8.58189 0.416992 9.33334V12.1667C0.416992 12.5424 0.566248 12.9027 0.831924 13.1684C1.0976 13.4341 1.45794 13.5833 1.83366 13.5833H14.5837V9.33334H17.417V13.5833H30.167C30.5427 13.5833 30.9031 13.4341 31.1687 13.1684C31.4344 12.9027 31.5837 12.5424 31.5837 12.1667V9.33334C31.5837 8.58189 31.2851 7.86122 30.7538 7.32987C30.2224 6.79852 29.5018 6.50001 28.7503 6.50001H24.2595C25.917 1.86751 19.6837 -1.40499 16.8078 2.59001L16.0003 3.66667L15.1928 2.56167C14.3003 1.30084 13.0678 0.74834 11.8353 0.734174ZM11.7503 3.66667C13.0112 3.66667 13.6487 5.19667 12.7562 6.08917C11.8637 6.98167 10.3337 6.34417 10.3337 5.08334C10.3337 4.70762 10.4829 4.34728 10.7486 4.08161C11.0143 3.81593 11.3746 3.66667 11.7503 3.66667ZM20.2503 3.66667C21.5112 3.66667 22.1487 5.19667 21.2562 6.08917C20.3637 6.98167 18.8337 6.34417 18.8337 5.08334C18.8337 4.70762 18.9829 4.34728 19.2486 4.08161C19.5143 3.81593 19.8746 3.66667 20.2503 3.66667ZM1.83366 15V26.3333C1.83366 27.0848 2.13217 27.8055 2.66352 28.3368C3.19488 28.8682 3.91555 29.1667 4.66699 29.1667H27.3337C28.0851 29.1667 28.8058 28.8682 29.3371 28.3368C29.8685 27.8055 30.167 27.0848 30.167 26.3333V15H17.417V26.3333H14.5837V15H1.83366Z" fill="white"/>
</svg>
